<svg version="1.1" viewBox="0.0 0.0 500.0 500.0" fill="none" stroke="none" stroke-linecap="square" stroke-miterlimit="10" xmlns:xlink="http://www.w3.org/1999/xlink" xmlns="http://www.w3.org/2000/svg"><clipPath id="p.0"><path d="m0 0l500.0 0l0 500.0l-500.0 0l0 -500.0z" clip-rule="nonzero"/></clipPath><g clip-path="url(#p.0)"><path fill="#000000" fill-opacity="0.0" d="m0 0l500.0 0l0 500.0l-500.0 0z" fill-rule="evenodd"/><defs><radialGradient id="p.1" gradientUnits="userSpaceOnUse" gradientTransform="matrix(18.803015600410784 0.0 0.0 18.803015600410784 0.0 0.0)" spreadMethod="pad" cx="13.295320883464587" cy="13.295320883464589" fx="13.295320883464587" fy="13.295320883464589" r="18.803014755249023"><stop offset="0.0" stop-color="#dfe9fb"/><stop offset="0.25" stop-color="#ffff00"/><stop offset="0.7" stop-color="#00ffff"/><stop offset="1.0" stop-color="#6e9be7"/></radialGradient></defs><path fill="url(#p.1)" d="m-0.007874016 249.99213l0 0c0 -138.0712 111.92881 -250.0 250.0 -250.0l0 0c66.30411 0 129.89261 26.33921 176.7767 73.223305c46.884094 46.884094 73.2233 110.47257 73.2233 176.7767l0 0c0 138.0712 -111.9288 250.0 -250.0 250.0l0 0c-138.0712 0 -250.0 -111.9288 -250.0 -250.0z" fill-rule="evenodd"/><path stroke="#4285f4" stroke-width="4.0" stroke-linejoin="round" stroke-linecap="butt" d="m-0.007874016 249.99213l0 0c0 -138.0712 111.92881 -250.0 250.0 -250.0l0 0c66.30411 0 129.89261 26.33921 176.7767 73.223305c46.884094 46.884094 73.2233 110.47257 73.2233 176.7767l0 0c0 138.0712 -111.9288 250.0 -250.0 250.0l0 0c-138.0712 0 -250.0 -111.9288 -250.0 -250.0z" fill-rule="evenodd"/><path fill="#000000" fill-opacity="0.0" d="m0 250.0l0 0c0 -74.719345 111.92881 -135.29134 250.0 -135.29134l0 0c138.0712 0 250.0 60.57199 250.0 135.29134l0 0c0 74.71933 -111.9288 135.29135 -250.0 135.29135l0 0c-138.0712 0 -250.0 -60.57202 -250.0 -135.29135z" fill-rule="evenodd"/><path stroke="#0f9d58" stroke-width="4.0" stroke-linejoin="round" stroke-linecap="butt" d="m0 250.0l0 0c0 -74.719345 111.92881 -135.29134 250.0 -135.29134l0 0c138.0712 0 250.0 60.57199 250.0 135.29134l0 0c0 74.71933 -111.9288 135.29135 -250.0 135.29135l0 0c-138.0712 0 -250.0 -60.57202 -250.0 -135.29135z" fill-rule="evenodd"/><path fill="#000000" fill-opacity="0.0" d="m250.0 0l0 0c74.71933 0 135.29135 111.92881 135.29135 250.0l0 0c0 138.0712 -60.57202 250.0 -135.29135 250.0l0 0c-74.719345 0 -135.29134 -111.9288 -135.29134 -250.0l0 0c0 -138.0712 60.57199 -250.0 135.29134 -250.0z" fill-rule="evenodd"/><path stroke="#0f9d58" stroke-width="4.0" stroke-linejoin="round" stroke-linecap="butt" d="m250.0 0l0 0c74.71933 0 135.29135 111.92881 135.29135 250.0l0 0c0 138.0712 -60.57202 250.0 -135.29135 250.0l0 0c-74.719345 0 -135.29134 -111.9288 -135.29134 -250.0l0 0c0 -138.0712 60.57199 -250.0 135.29134 -250.0z" fill-rule="evenodd"/><path fill="#000000" fill-opacity="0.0" d="m73.21944 73.22717l0 0c52.836693 -52.836693 174.81265 -16.525925 272.44092 81.102356l0 0c97.628296 97.628296 133.93906 219.60425 81.10239 272.44095l0 0c-52.8367 52.8367 -174.81267 16.52594 -272.44098 -81.102356l0 0c-97.62828 -97.628296 -133.93904 -219.60425 -81.102356 -272.44095z" fill-rule="evenodd"/><path stroke="#0f9d58" stroke-width="4.0" stroke-linejoin="round" stroke-linecap="butt" d="m73.21944 73.22717l0 0c52.836693 -52.836693 174.81265 -16.525925 272.44092 81.102356l0 0c97.628296 97.628296 133.93906 219.60425 81.10239 272.44095l0 0c-52.8367 52.8367 -174.81267 16.52594 -272.44098 -81.102356l0 0c-97.62828 -97.628296 -133.93904 -219.60425 -81.102356 -272.44095z" fill-rule="evenodd"/><path fill="#000000" fill-opacity="0.0" d="m73.22717 426.78058l0 0c-52.836693 -52.8367 -16.525925 -174.81267 81.102356 -272.44098l0 0c97.628296 -97.62828 219.60425 -133.93906 272.44095 -81.102356l0 0c52.8367 52.836685 16.52594 174.81265 -81.102356 272.44092l0 0c-97.628296 97.628296 -219.60425 133.93906 -272.44095 81.10239z" fill-rule="evenodd"/><path stroke="#0f9d58" stroke-width="4.0" stroke-linejoin="round" stroke-linecap="butt" d="m73.22717 426.78058l0 0c-52.836693 -52.8367 -16.525925 -174.81267 81.102356 -272.44098l0 0c97.628296 -97.62828 219.60425 -133.93906 272.44095 -81.102356l0 0c52.8367 52.836685 16.52594 174.81265 -81.102356 272.44092l0 0c-97.628296 97.628296 -219.60425 133.93906 -272.44095 81.10239z" fill-rule="evenodd"/><path fill="#db4437" d="m315.4252 250.0l-26.404968 9.390228l0 -18.780457zm-19.169464 -46.26967l-12.027832 25.313492l-13.279602 -13.279617zm-46.26361 -19.163406l9.390228 26.404968l-18.780457 0zm-46.26967 19.163406l25.313492 12.0338745l-13.279617 13.279617zm-19.163406 46.26967l26.404968 -9.390228l0 18.780457zm19.163406 46.26361l12.0338745 -25.307434l13.279617 13.279602zm46.26967 19.169464l-9.390228 -26.404968l18.780457 0zm46.26361 -19.169464l-25.307434 -12.027832l13.279602 -13.279602zm-78.98015 -46.26361l0 0c0 -18.068848 14.64769 -32.716537 32.716537 -32.716537c18.068848 0 32.716522 14.64769 32.716522 32.716537c0 18.068848 -14.647675 32.716522 -32.716522 32.716522c-18.068848 0 -32.716537 -14.647675 -32.716537 -32.716522z" fill-rule="evenodd"/><path stroke="#f4b400" stroke-width="4.0" stroke-linejoin="round" stroke-linecap="butt" d="m315.4252 250.0l-26.404968 9.390228l0 -18.780457zm-19.169464 -46.26967l-12.027832 25.313492l-13.279602 -13.279617zm-46.26361 -19.163406l9.390228 26.404968l-18.780457 0zm-46.26967 19.163406l25.313492 12.0338745l-13.279617 13.279617zm-19.163406 46.26967l26.404968 -9.390228l0 18.780457zm19.163406 46.26361l12.0338745 -25.307434l13.279617 13.279602zm46.26967 19.169464l-9.390228 -26.404968l18.780457 0zm46.26361 -19.169464l-25.307434 -12.027832l13.279602 -13.279602zm-78.98015 -46.26361l0 0c0 -18.068848 14.64769 -32.716537 32.716537 -32.716537c18.068848 0 32.716522 14.64769 32.716522 32.716537c0 18.068848 -14.647675 32.716522 -32.716522 32.716522c-18.068848 0 -32.716537 -14.647675 -32.716537 -32.716522z" fill-rule="evenodd"/></g></svg>